<svg width="1646" height="508" viewBox="0 0 1646 508" fill="none" xmlns="http://www.w3.org/2000/svg">
<g clip-path="url(#clip0_101_2)">
<path d="M1647 192.562C1642.59 197.915 1637.97 202.659 1633.89 207.831C1632.3 209.837 1631.69 212.751 1631.09 215.357C1630.19 219.318 1629.46 223.352 1629.13 227.393C1628.98 229.211 1629.9 231.153 1630.49 232.986C1632.29 238.487 1634.53 243.873 1635.89 249.475C1637.07 254.345 1633.83 257.613 1630.01 259.925C1627.25 261.595 1624.17 262.753 1621.18 264.007C1617.5 265.551 1614.05 267.161 1612.76 271.504C1612.26 273.159 1611.16 274.783 1609.95 276.05C1603.64 282.634 1605.53 290.658 1606.06 298.319C1606.91 310.41 1601 313.792 1592.19 313.534C1581.38 313.218 1574.9 318.912 1567.59 324.729C1563.92 327.648 1562.57 331.203 1562 335.446C1561.89 336.258 1561.82 337.089 1561.6 337.869C1557.47 352.057 1552.41 354.887 1538.2 349.946C1532.04 347.808 1526.87 349.005 1520.87 350.723C1512.09 353.232 1507.24 359.196 1502.43 365.992C1496.01 375.063 1490.16 374.51 1483.03 369.555C1479.69 367.232 1476.37 364.88 1473.02 362.561C1472.63 362.285 1472.11 361.892 1471.71 361.952C1463.56 363.174 1454.85 358.473 1447.14 364.332C1444.55 366.303 1441.93 368.286 1439.13 369.938C1430.55 375.005 1423.65 373.891 1418.52 364.5C1414.05 356.314 1407.21 353.293 1399.45 349.833C1391.77 346.406 1385.42 350.174 1378.64 351.279C1369.48 352.772 1365.27 350.962 1362.09 342.19C1361.27 339.914 1360.32 337.562 1360.15 335.192C1359.79 330.283 1357.78 326.756 1353.63 323.979C1350.38 321.801 1347.88 318.501 1344.63 316.312C1342.61 314.951 1339.87 314.427 1337.37 314.081C1334.59 313.697 1331.64 314.364 1328.9 313.837C1318.02 311.737 1313.61 304.371 1316.36 293.291C1317.64 288.129 1317.59 283.273 1314.02 278.873C1312.8 277.372 1311.6 275.666 1311.05 273.854C1309.18 267.684 1304.27 265.137 1298.88 263.044C1298.58 262.928 1298.18 263.072 1297.9 262.937C1287.53 257.93 1281.49 253.781 1289.01 239.6C1292.92 232.227 1292.38 225.364 1291.66 217.42C1290.83 208.275 1284.37 204.525 1279.48 199.096C1274.27 193.326 1273.47 188.921 1277.97 182.56C1280.33 179.222 1283.27 176.241 1286.21 173.373C1289.15 170.502 1291.61 167.657 1291.08 163.12C1290.92 161.753 1291.57 160.249 1292.01 158.86C1294.35 151.512 1292.01 145.238 1288.49 138.72C1283.8 130.037 1284.21 122.432 1295.42 117.895C1298.58 116.617 1301.63 115.09 1304.74 113.672C1305.33 113.402 1305.95 113.176 1306.48 112.811C1311.3 109.466 1317.63 91.6861 1316.49 85.8564C1314.99 78.209 1315.83 68.772 1323.78 66.7451C1326.75 65.9862 1329.99 64.6483 1332.8 65.1753C1341 66.7103 1345.72 61.4921 1351.39 57.324C1357.38 52.9263 1359.9 47.3214 1361.17 40.2733C1362.8 31.2031 1368.9 25.9818 1375.44 27.0565C1378.96 27.6339 1382.64 28.1098 1385.84 29.5483C1390.68 31.7287 1395.02 31.0415 1399.45 28.8711C1400.04 28.5846 1400.61 28.1374 1401.22 28.0514C1409.45 26.902 1414.55 21.8464 1418.61 14.967C1423.87 6.05737 1430.65 3.29514 1440.5 10.1871C1443.31 12.1529 1445.95 14.3745 1448.84 16.2049C1450.29 17.121 1452.1 17.5283 1453.8 17.9568C1454.74 18.1939 1455.8 17.9029 1456.78 18.0151C1465.77 19.0374 1473.59 17.2411 1480.84 11.0595C1485.25 7.30286 1491.37 3.18513 1497.51 8.25245C1501.24 11.3242 1504.2 15.4702 1506.99 19.4853C1509.23 22.6942 1511.39 25.3442 1515.5 26.2748C1518.62 26.9817 1521.62 28.4341 1524.51 29.89C1528.8 32.0519 1532.82 30.7561 1536.95 29.5466C1540.06 28.6353 1543.17 27.4755 1546.35 27.1243C1550.91 26.6221 1555.11 27.7263 1557.63 32.1339C1558.5 33.6673 1559.83 35.2451 1559.93 36.8694C1560.72 48.7952 1568.53 55.9766 1577.15 62.5065C1579.06 63.9573 1581.84 64.4361 1584.31 64.9517C1589.68 66.0748 1595.22 66.5368 1600.48 68.0288C1604.5 69.1703 1606.27 72.6584 1605.99 76.929C1605.69 81.5231 1605.09 86.1154 1605.12 90.7054C1605.13 92.9818 1605.95 95.4056 1606.97 97.4883C1608.61 100.835 1611.31 103.752 1612.47 107.217C1614.29 112.629 1618.89 113.916 1623.14 115.988C1626.19 117.472 1629.33 118.868 1632.14 120.748C1635.94 123.3 1637.29 129.256 1635.68 134.764C1635.23 136.303 1634.86 138.037 1633.89 139.223C1627.33 147.253 1630.09 155.989 1631.23 164.867C1632.17 172.234 1638.77 174.654 1642.23 179.729C1643.6 181.742 1644.97 183.759 1646.67 185.887C1647 188.042 1647 190.083 1647 192.562ZM1387.43 50.9277C1373.16 58.4953 1360.02 67.8585 1349.19 79.6905C1340.31 89.3814 1332.46 100.209 1325.41 111.328C1311.88 132.66 1305.53 156.56 1304.2 181.597C1303.65 192.052 1305.07 202.65 1306.06 213.139C1307.35 226.847 1311.58 239.889 1317.2 252.321C1327.02 274.04 1340.52 293.102 1358.97 308.615C1374.25 321.462 1391.04 331.42 1409.83 338C1422.8 342.541 1436.15 344.859 1449.88 346.31C1462.57 347.651 1475.04 346.783 1487.21 344.624C1512.98 340.053 1536.47 329.802 1557.32 313.448C1574.79 299.747 1588.93 283.429 1599.41 264.014C1615.1 234.951 1620.84 203.923 1617.07 171.043C1614.67 150.22 1608.16 130.884 1597.97 112.646C1587.07 93.1381 1572.6 76.6543 1554.72 63.487C1534.59 48.6596 1512.13 38.9746 1487.2 34.787C1470.48 31.9779 1453.87 31.634 1437.29 34.1734C1420.04 36.8152 1403.63 42.5364 1387.43 50.9277Z" fill="#FFFFFF"/>
<path d="M1 109.461C2.56886 104.237 3.83418 99.3477 5.76219 94.7351C12.1255 79.5113 23.6544 70.1248 39.5142 66.0803C42.7887 65.2453 46.2982 65.0568 49.7011 65.0448C73.6886 64.9604 97.6766 65 121.664 65C123.297 65 124.93 65 126.773 65C126.773 76.0733 126.773 86.8078 126.773 98C125.056 98 123.443 98 121.829 98C99.3405 98 76.8519 97.9984 54.3632 98.0006C41.8871 98.0019 35.0012 104.86 35.0008 117.291C34.999 175.928 35 234.565 35 293.202C35 294.998 35 296.794 35 298.786C23.8953 298.786 13.1562 298.786 1.81003 298.786C1.81003 295.543 1.81003 292.434 1.40502 289.163C1 286.629 1 284.259 1.40855 281.276C1.87656 280.171 1.98803 279.677 1.98812 279.184C1.99749 227.599 2.00493 176.014 1.95821 124.429C1.95718 123.286 1.33332 122.143 1 121C1 117.307 1 113.614 1 109.461Z" fill="#FFFFFF"/>
<path d="M1 402.469C9.66183 402 18.3332 402.236 26.981 401.887C30.6021 401.741 31.9179 403.163 32.7178 406.279C37.4293 424.632 42.2251 442.962 47.0113 461.296C47.4053 462.805 47.9397 464.277 48.8868 467.285C54.8918 444.762 60.5396 423.578 66.2415 402.192C75.9251 402.192 85.6985 402.192 95.7364 402.192C95.7364 427.994 95.7364 453.723 95.7364 479.726C90.3574 479.726 84.9533 479.726 79.181 479.726C79.181 459.339 79.181 438.921 79.181 418.503C78.9478 418.471 78.7146 418.439 78.4814 418.407C72.9877 437.567 67.3839 456.698 62.1109 475.919C61.2519 479.05 60.2063 480.224 56.95 480.071C51.4652 479.813 45.9587 479.945 40.4629 480.024C37.8887 480.061 36.6818 479.634 35.8271 476.494C30.367 456.429 24.4276 436.496 18.1025 416.564C18.1025 437.535 18.1025 458.505 18.1025 480C12.4781 480 7.2072 480 1.46816 480C1 454.312 1 428.625 1 402.469Z" fill="#FFFFFF"/>
<path d="M711.468 509C711 473.542 711 438.084 711 402.313C716.229 402.313 721.298 402.313 726.782 402.313C726.908 404.681 727.042 407.223 727.198 410.177C730.533 407.937 733.367 405.592 736.564 403.954C758.648 392.642 782.597 405.736 786.13 430.912C787.62 441.523 787.162 451.692 782.928 461.446C778.437 471.791 768.308 481.078 754.673 481.072C746.707 481.068 739.15 480.323 732.741 474.988C731.149 473.662 729.431 472.489 728 471.417C728 482.996 728 495.53 728 508.531C722.645 509 717.29 509 711.468 509ZM755.182 415.99C747.544 413.154 738.707 415.458 733.816 421.561C726.203 431.06 725.283 448.395 732.269 458.571C739.153 468.597 757.117 468.995 764.292 458.641C768.943 451.93 769.007 445.034 769.015 437.696C769.026 427.829 764.595 420.689 755.182 415.99Z" fill="#FFFFFF"/>
<path d="M189.468 509C189 473.542 189 438.084 189 402.313C194.229 402.313 199.299 402.313 204.783 402.313C204.908 404.686 205.042 407.22 205.198 410.177C208.533 407.936 211.367 405.592 214.564 403.954C236.648 392.642 260.597 405.736 264.13 430.912C265.62 441.523 265.162 451.692 260.928 461.446C256.437 471.791 246.308 481.078 232.673 481.072C224.707 481.068 217.15 480.323 210.741 474.988C209.149 473.663 207.43 472.489 206 471.418C206 482.996 206 495.53 206 508.531C200.645 509 195.29 509 189.468 509ZM206 444.651C207.286 448.896 208.076 453.376 209.952 457.342C215.335 468.726 235.221 469.228 242.098 458.862C249.223 448.125 248.953 436.806 244.156 425.966C238.873 414.027 224.347 411.353 214.554 418.904C206.181 425.359 205.317 434.269 206 444.651Z" fill="#FFFFFF"/>
<path d="M612.531 1C613 6.78224 613 12.5645 613 18.673C602.063 18.673 591.258 18.673 580 18.673C580 13.0911 580 7.5138 580 1.46824C590.688 1 601.375 1 612.531 1Z" fill="#FFFFFF"/>
<path d="M667 153C667 190.472 667 227.443 667 264.814C679.606 264.814 692.014 264.814 704.709 264.814C704.709 276.279 704.709 287.35 704.709 298.712C632.388 298.712 559.994 298.712 487.299 298.712C487.299 287.74 487.299 276.668 487.299 265.194C499.597 265.194 512.006 265.194 525 265.194C525 263.042 525 261.279 525 259.516C525 220.524 525.009 181.532 524.995 142.541C524.99 130.594 526.057 118.88 530.953 107.735C537.233 93.4435 546.82 82.0445 560.382 74.368C566.433 70.943 573.138 68.6736 580.018 65.6741C580.018 53.1397 580.018 39.8459 580.018 26.2773C590.973 26.2773 601.711 26.2773 612.836 26.2773C612.836 39.6568 612.836 53.0784 612.836 66.7077C625.373 69.4339 636.075 75.3297 645.085 83.7798C653.908 92.0546 660.21 102.173 664.059 113.823C668.256 126.527 666.646 139.564 667 153ZM634 234.5C634 204.027 634.043 173.554 633.955 143.081C633.942 138.343 633.703 133.543 632.917 128.882C631.504 120.497 627.6 113.041 621.039 107.758C612.295 100.719 602.45 96.8855 590.582 98.8618C574.161 101.596 559.207 116.151 559.091 133.681C558.81 175.975 558.998 218.272 559.01 260.568C559.01 261.997 559.159 263.426 559.229 264.706C584.349 264.706 609.072 264.706 634 264.706C634 254.776 634 245.138 634 234.5Z" fill="#FFFFFF"/>
<path d="M435 291.933C435 281.469 435 271.499 435 261.265C410.002 261.265 385.267 261.265 360.131 261.265C360.131 273.662 360.131 286.071 360.131 298.737C348.997 298.737 338.26 298.737 327 298.737C327 296.962 327 295.19 327 293.418C327 239.928 326.803 186.437 327.113 132.949C327.214 115.662 333.924 100.676 345.623 87.7587C357.129 75.0534 371.455 67.4004 388.051 65.2556C406.663 62.8504 424.326 66.8657 439.777 78.2856C454.337 89.0468 463.573 103.303 467.465 120.968C468.232 124.451 468.93 128.043 468.936 131.586C469.027 186.742 468.998 241.898 468.99 297.054C468.99 297.528 468.877 298.002 468.785 298.734C457.67 298.734 446.599 298.734 435 298.734C435 296.636 435 294.531 435 291.933ZM402.635 98.9524C401.559 98.635 400.478 98.0272 399.407 98.0443C385.776 98.2624 375.13 104.196 366.981 114.999C361.413 122.381 360.212 131.081 360.11 139.776C359.804 165.929 360 192.087 360 218.243C360 221.034 360 223.824 360 226.631C385.245 226.631 410.093 226.631 435 226.631C435 196.941 434.814 167.619 435.123 138.301C435.206 130.377 433.991 123.011 429.733 116.469C423.56 106.985 415.222 100.359 402.635 98.9524Z" fill="#FFFFFF"/>
<path d="M860 173C860 193.159 860.128 212.818 859.961 232.476C859.819 249.098 853.241 263.159 842.18 275.345C832.888 285.582 821.795 292.84 808.324 296.236C786.373 301.768 765.974 298.545 747.565 285.027C736.292 276.75 727.49 266.299 723.152 252.912C720.54 244.853 719.461 236.297 717.558 227.327C729.998 227.327 740.871 227.327 751.741 227.327C752.77 246.323 764.664 260.708 783.43 264.62C793.723 266.765 803.671 263.985 811.864 257.477C822.575 248.969 827.856 237.613 827.05 223.645C826.743 218.332 827 212.987 827 207.793C820.016 210.358 813.223 213.759 806.031 215.322C784.518 219.998 764.469 216.429 746.493 203.039C730.799 191.349 722.649 175.313 719.024 156.551C718.931 156.068 719.001 155.554 719.001 155.054C719 126.58 719 98.1059 719 69.3161C729.891 69.3161 740.629 69.3161 752 69.3161C752 70.7444 752 72.3341 752 73.9237C752 97.5807 752.261 121.242 751.915 144.893C751.653 162.82 765.642 180.181 783.709 183.294C801.47 186.354 822.528 173.293 825.966 154.136C826.538 150.946 826.945 147.676 826.956 144.441C827.036 119.477 827 94.5132 827 69.2749C837.976 69.2749 848.712 69.2749 860 69.2749C860 103.662 860 138.081 860 173Z" fill="#FFFFFF"/>
<path d="M188 266.11C188 277.232 188 287.864 188 298.747C176.978 298.747 166.242 298.747 155 298.747C155 296.944 155 295.17 155 293.396C155 240.247 154.927 187.098 155.04 133.949C155.079 115.787 162.008 100.364 174.33 87.0731C184.251 76.3715 196.243 69.2681 210.357 66.404C231.395 62.135 250.961 65.8817 268.492 78.9286C282.955 89.6917 291.618 104.06 295.663 121.371C296.549 125.159 296.916 129.145 296.942 133.044C297.071 151.704 297.01 170.365 296.997 189.025C296.983 210.686 289.036 229.053 272.927 243.377C262.552 252.604 250.277 258.702 236.114 259.969C230.22 260.497 224.297 260.862 218.382 260.956C208.421 261.116 198.455 261 188 261C188 262.736 188 264.178 188 266.11ZM245.978 104.461C239.711 99.985 232.472 97.7509 225.039 98.1727C212.534 98.8823 202.442 104.685 194.951 114.994C189.513 122.479 188.206 131.104 188.111 139.801C187.81 167.125 188 194.454 188 221.781C188 223.4 188 225.018 188 227C201.208 227 213.997 226.937 226.785 227.015C246.338 227.133 263.102 210.34 263.018 190.807C262.936 171.978 263.139 153.147 262.951 134.32C262.825 121.667 256.633 112.16 245.978 104.461Z" fill="#FFFFFF"/>
<path d="M1055 163C1055 131.529 1055 100.558 1055 69.2938C1066.27 69.2938 1077.34 69.2938 1088.81 69.2938C1088.81 98.2739 1088.81 127.342 1088.81 157C1099.45 157 1109.72 157.154 1119.97 156.96C1131.97 156.733 1143.56 157.818 1154.79 162.843C1169.18 169.279 1180.04 179.316 1187.91 192.674C1195.4 205.373 1198.24 219.327 1196.92 233.925C1195.7 247.295 1191.15 259.57 1183.06 270.456C1171.99 285.342 1156.91 293.748 1139.18 297.876C1136.02 298.611 1132.7 298.941 1129.46 298.952C1104.82 299.039 1080.19 298.999 1055 298.999C1055 253.673 1055 208.587 1055 163ZM1089 260.38C1089 261.821 1089 263.262 1089 265C1100.44 265 1111.4 265.001 1122.35 264.999C1125.51 264.999 1128.78 265.503 1131.82 264.898C1150.84 261.118 1165.01 244.63 1163.09 224.374C1161.76 210.286 1152.26 197.65 1138.62 192.924C1122.36 187.29 1105.69 191.389 1089 189.755C1089 213.503 1089 236.452 1089 260.38Z" fill="#FFFFFF"/>
<path d="M960.788 265C977.47 263.512 994.635 250.004 995.351 227.207C1006.43 227.207 1017.52 227.207 1028.99 227.207C1028.72 241.744 1024.95 254.998 1016.99 266.991C1004.9 285.22 987.833 295.289 966.201 298.029C942.171 301.073 922.088 293.171 905.608 275.978C896.277 266.245 890.412 254.401 888.078 241.051C887.264 236.393 887.058 231.581 887.045 226.837C886.957 196.173 886.952 165.507 887.019 134.842C887.057 117.309 892.929 102.08 904.585 88.7976C921.345 69.6982 942.849 62.2438 967.138 65.3041C997.162 69.0872 1018.93 89.0365 1026.66 117.874C1029.35 127.872 1028.84 138.724 1029.83 149.633C1017.88 149.633 1006.8 149.633 995 149.633C995 145.044 994.894 140.123 995.019 135.208C995.453 118.219 980.501 101.33 962.918 98.7561C942.712 95.7975 922.036 112.328 920.979 131.449C920.763 135.367 920.056 139.272 920.044 143.184C919.96 170.516 919.935 197.848 920.033 225.18C920.071 235.925 923.494 245.521 930.963 253.434C938.921 261.866 948.763 265.649 960.788 265Z" fill="#FFFFFF"/>
<path d="M1245 193C1245 228.474 1245 263.449 1245 298.711C1233.72 298.711 1222.64 298.711 1211.28 298.711C1211.28 222.376 1211.28 145.977 1211.28 69.2886C1222.28 69.2886 1233.36 69.2886 1245 69.2886C1245 110.315 1245 151.408 1245 193Z" fill="#FFFFFF"/>
<path d="M562.048 415.139C568.112 411.034 574.17 406.754 581.905 405.506C600.6 402.489 618.479 411.501 622.063 433.232C623.472 441.778 622.943 449.919 620.082 458.121C615.598 470.981 602.163 480.922 588.689 481.026C579.857 481.094 571.213 481.109 563.319 475.927C553.798 469.678 548.873 460.439 547.216 449.901C544.582 433.146 544.908 416.248 550.038 399.853C555.041 383.863 567.148 376.457 582.929 374.038C592.877 372.513 602.889 371.413 612.856 370.005C615.767 369.594 616.703 371.218 616.956 373.515C617.348 377.075 617.516 380.659 617.84 385.063C612.32 385.692 606.538 386.088 600.855 387.061C592.468 388.498 583.797 389.378 575.893 392.264C566.041 395.86 562.92 404.94 562.048 415.139ZM600.976 458.27C605.392 452.923 604.833 446.541 605.093 440.182C605.463 431.11 598.509 422.978 593.509 421.32C585.148 418.545 577.003 418.335 569.968 425.384C565.956 429.404 564.202 434.167 563.257 439.435C561.545 448.988 566.588 462.485 577.939 465.352C586.543 467.525 594.473 466.086 600.976 458.27Z" fill="#FFFFFF"/>
<path d="M405.538 404.188C419.164 413.255 422.567 426.411 422.065 441.379C421.951 444.779 420.217 445.039 417.574 445.029C401.415 444.971 385.255 444.997 369.095 445.009C368.122 445.009 367.148 445.135 366.179 445.202C367.462 456.153 371.712 464.959 383.467 466.85C393.715 468.499 402.009 464.741 406.701 454.602C411.394 456.655 415.749 458.561 420.348 460.573C416.543 471.429 409.105 477.767 398.382 479.923C385.389 482.535 372.778 481.912 361.92 472.974C355.569 467.746 352.309 460.53 350.429 452.837C347.734 441.811 348.56 430.788 353.286 420.434C361.524 402.383 380.807 396.765 397.987 401.488C400.435 402.161 402.792 403.166 405.538 404.188ZM403.999 426.757C400.044 416.24 391.212 411.414 380.805 414.084C372.85 416.125 366.766 424.176 367.468 431.844C379.875 431.844 392.291 431.844 405.206 431.844C404.753 430.241 404.379 428.917 403.999 426.757Z" fill="#FFFFFF"/>
<path d="M157.787 471.729C149.14 483.464 127.746 483.373 117.624 476.848C104.716 468.528 104.531 445.974 120.32 439.188C129.207 435.368 138.991 433.62 148.397 431.032C150.414 430.477 152.65 430.61 154.574 429.873C155.606 429.477 156.923 427.852 156.852 426.873C156.414 420.831 151.725 415.391 146.275 414.11C140.313 412.709 132.238 415.587 129.27 420.417C128.036 422.425 127.312 424.748 126.426 426.769C121.38 425.684 116.368 424.606 110.957 423.441C110.969 417.33 114.039 412.159 118.316 408.428C130.307 397.966 150.115 396.714 163.7 405.491C169.199 409.044 172.452 415.156 172.932 421.965C173.546 430.689 174.05 439.454 173.896 448.189C173.73 457.594 174.087 466.784 178.045 475.506C178.436 476.369 178.746 477.284 178.967 478.205C179.073 478.646 178.884 479.159 178.786 479.999C173.974 479.999 169.155 480.167 164.363 479.879C163.194 479.809 161.826 478.445 161.061 477.327C159.831 475.529 159.028 473.44 157.787 471.729ZM128.995 464.491C135.125 469.833 142.321 469.259 149.227 464.794C157.471 459.463 157.465 450.76 156.746 441.704C150.113 443.192 143.841 444.591 137.574 446.017C136.96 446.157 136.377 446.451 135.79 446.696C125.59 450.947 123.224 456.49 128.995 464.491Z" fill="#FFFFFF"/>
<path d="M639.453 476.813C632.97 472.166 630.007 465.672 630.201 458.525C630.436 449.896 633.998 442.217 642.733 438.876C650.028 436.086 657.652 434.116 665.205 432.06C668.932 431.046 672.876 430.835 676.619 429.866C677.599 429.612 678.931 427.823 678.851 426.841C678.34 420.553 673.404 414.744 667.75 414.081C660.441 413.226 654.019 415.117 650.715 421.773C649.871 423.473 649.125 425.22 648.416 426.768C643.361 425.68 638.347 424.601 632.91 423.431C633.201 417.007 636.27 411.57 641.016 407.681C652.599 398.192 673 397.092 685.323 405.197C690.942 408.893 694.266 414.81 694.881 421.492C695.696 430.357 696.048 439.307 695.896 448.209C695.735 457.613 696.103 466.794 700.041 475.525C700.605 476.777 700.834 478.18 701.359 479.999C695.959 479.999 691.139 480.167 686.347 479.879C685.183 479.809 683.736 478.452 683.079 477.308C682.015 475.456 681.496 473.291 680.698 471.126C670.365 483.439 651.311 483.471 639.453 476.813ZM664.806 467.722C677.478 464.051 680.451 453.687 678.355 441.805C676.451 442.207 674.531 442.475 672.695 443.025C666.284 444.946 659.852 446.816 653.529 449C649.779 450.295 648.027 453.264 647.972 457.312C647.914 461.566 649.669 464.751 653.652 466.035C656.962 467.102 660.532 467.363 664.806 467.722Z" fill="#FFFFFF"/>
<path d="M314.236 419.27C317.156 415.346 320.277 411.929 322.372 407.969C325.254 402.519 329.403 401.195 335.087 401.92C338.494 402.355 342.001 402 346.22 402C341.603 408.463 337.395 414.502 333.026 420.423C329.655 424.992 326.086 429.415 322.597 433.898C320.796 436.212 320.784 438.469 322.408 440.962C330.653 453.625 338.825 466.335 347.621 479.955C340.975 479.955 334.851 480.655 329.042 479.611C326.706 479.191 324.826 475.089 323.14 472.41C318.524 465.071 313.997 457.67 309.685 450.15C307.389 446.145 304.474 444.172 299.749 444.943C297.683 445.28 295.517 445 293.011 445C293.011 456.783 293.011 468.189 293.011 479.793C287.218 479.793 281.817 479.793 276.207 479.793C276.207 453.896 276.207 428.173 276.207 402.224C281.745 402.224 287.147 402.224 292.945 402.224C292.945 411.741 292.945 421.149 292.945 431C296.769 431 300.229 431.171 303.657 430.911C304.939 430.814 306.523 430.012 307.314 429.012C309.708 425.989 311.781 422.712 314.236 419.27Z" fill="#FFFFFF"/>
<path d="M452 458C452 444.193 452 430.886 452 417.181C443.725 417.181 435.648 417.181 427.288 417.181C427.288 412.054 427.288 407.315 427.288 402.285C449.285 402.285 471.352 402.285 493.71 402.285C493.71 406.945 493.71 411.683 493.71 416.825C485.721 416.825 477.643 416.825 469.177 416.825C469.177 437.952 469.177 458.688 469.177 479.711C463.386 479.711 457.981 479.711 452 479.711C452 472.696 452 465.598 452 458Z" fill="#FFFFFF"/>
<path d="M493.406 431.392C505.704 431.056 517.656 431.056 529.797 431.056C529.797 436.136 529.797 440.874 529.797 445.805C517.645 445.805 505.693 445.805 493.059 445.805C493.059 441.224 493.059 436.476 493.406 431.392Z" fill="#FFFFFF"/>
<path d="M1361.66 72.736C1374.81 60.5586 1390.04 52.4942 1406.18 46.0714C1426.57 37.9524 1447.92 34.8648 1469.74 36.1132C1487.36 37.1214 1504.46 40.9537 1520.83 47.9156C1538.01 55.2228 1553.19 65.2733 1566.81 78.1094C1579.8 90.3594 1590.46 104.246 1598.41 120.072C1605.87 134.917 1611.38 150.56 1612.98 167.279C1613.82 176.115 1615.09 185.005 1614.84 193.832C1614.3 212.846 1610.49 231.288 1603.05 248.926C1596.46 264.545 1587.43 278.495 1576.31 291.306C1555.64 315.137 1529.68 330.282 1499.62 338.612C1482.81 343.271 1465.4 344.234 1448.13 342.822C1427.73 341.154 1408.17 335.604 1389.97 325.975C1364.3 312.393 1344.07 293.026 1329.02 268.196C1318.79 251.306 1311.75 233.016 1309.37 213.585C1307.63 199.443 1308.38 184.889 1309.12 170.576C1310.09 151.954 1316.3 134.644 1324.98 118.242C1334.2 100.824 1346.03 85.4632 1361.66 72.736ZM1453.52 178.98C1459.1 170.949 1460.41 161.98 1460.09 152.388C1459.65 139.445 1449.45 125.323 1437.22 120.91C1426.81 117.152 1416.39 116.161 1405.42 117.92C1382.73 121.559 1370.23 141.441 1372.48 162.73C1379.2 162.73 1385.92 162.73 1392.86 162.73C1392.91 161.67 1393.05 160.859 1392.98 160.066C1391.9 147.968 1398.51 136.066 1413.42 134.312C1425.51 132.89 1437 138.523 1438.94 152.418C1440.89 166.493 1434.14 177.099 1424.29 186.152C1418.96 191.046 1413.34 195.612 1408.02 200.518C1397.57 210.162 1387.24 219.941 1376.86 229.661C1375.6 230.846 1373.29 231.941 1373.21 233.193C1372.81 239.075 1373.03 244.998 1373.03 250.762C1402.72 250.762 1431.64 250.762 1460.72 250.762C1460.72 244.8 1460.72 239.077 1460.72 232.945C1440.72 232.945 1420.99 232.945 1400.57 232.945C1401.24 231.375 1401.41 230.141 1402.11 229.477C1407.63 224.265 1413.23 219.132 1418.86 214.037C1422.27 210.954 1425.81 208.022 1429.23 204.951C1437.89 197.167 1447.27 190.051 1453.52 178.98ZM1454.19 205.375C1454.19 210.805 1454.19 216.235 1454.19 222.137C1475.95 222.137 1497.33 222.137 1519.2 222.137C1519.2 232.006 1519.2 241.404 1519.2 250.619C1526.09 250.619 1532.48 250.619 1539.17 250.619C1539.17 240.965 1539.17 231.692 1539.17 221.934C1543.86 221.934 1548.27 221.934 1552.68 221.934C1552.68 215.713 1552.68 209.99 1552.68 203.78C1547.97 203.78 1543.58 203.78 1538.72 203.78C1538.72 175.575 1538.72 147.861 1538.72 120C1533.26 120 1528.21 120.457 1523.29 119.887C1516.85 119.14 1513.32 121.917 1509.82 127.105C1500.55 140.872 1490.52 154.126 1480.88 167.653C1472.11 179.974 1463.46 192.386 1454.19 205.375ZM1504.96 53.4653C1480.37 44.9942 1455.5 43.7722 1430.16 49.9713C1405.19 56.0772 1384.13 68.8683 1364.81 85.4655C1351.53 96.8644 1326.46 138.571 1327.8 150.423C1344.42 104.812 1374.22 72.9387 1420.79 59.9478C1466.49 47.198 1509.57 55.6334 1549.34 81.7414C1537.08 68.5902 1522.22 59.8937 1504.96 53.4653ZM1574.07 273.611C1582.99 262.111 1592.07 243.786 1591.06 238.639C1572.05 280.741 1541.6 309.853 1496.57 320.735C1452.26 331.445 1410.86 322.29 1372.77 297.139C1373.2 298.484 1373.7 299.385 1374.46 299.942C1381.69 305.235 1388.68 310.907 1396.27 315.632C1413.61 326.437 1432.84 331.73 1453.11 332.918C1468.77 333.837 1484.07 331.597 1499.24 327.184C1520.19 321.093 1538.53 310.69 1554.34 295.951C1561.43 289.34 1567.44 281.573 1574.07 273.611ZM1551.13 84.0108C1551.64 84.1721 1552.15 84.3334 1552.66 84.4947C1552.5 84.021 1552.33 83.5472 1552.16 83.0735C1551.57 83.3096 1550.97 83.5456 1551.13 84.0108ZM1371.51 295.141C1371.2 295.392 1370.88 295.642 1370.56 295.892C1371.02 295.846 1371.47 295.8 1371.51 295.141Z" fill="#FFFFFF"/>
<path d="M1479.38 204C1473.47 204.081 1476.4 200.781 1477.4 199.307C1481.68 192.987 1486.31 186.906 1490.79 180.717C1498.21 170.45 1505.57 160.138 1513.06 149.918C1514.3 148.222 1516.06 146.897 1517.57 145.4C1517.93 145.657 1518.28 145.914 1518.64 146.171C1518.64 165.288 1518.64 184.404 1518.64 204C1505.66 204 1492.75 204 1479.38 204Z" fill="#FFFFFF"/>
</g>
<defs>
<clipPath id="clip0_101_2">
<rect width="1646" height="508" fill="#FFFFFF"/>
</clipPath>
</defs>
</svg>
