<svg width="16" height="16" viewBox="0 0 16 16" fill="none" xmlns="http://www.w3.org/2000/svg">
<g clip-path="url(#clip0_2093_12189)">
<path fill-rule="evenodd" clip-rule="evenodd" d="M5.18757 3.09268C4.18735 3.66572 3.38607 4.53067 2.89102 5.5717C2.39597 6.61273 2.23078 7.78016 2.41757 8.91767L1.62507 8.12517C1.52562 8.02572 1.39072 7.96985 1.25007 7.96984C1.10942 7.96984 0.974528 8.02572 0.875072 8.12517C0.775616 8.22463 0.719742 8.35952 0.719743 8.50017C0.719742 8.64083 0.775616 8.77572 0.875072 8.87517L3.00007 11.0002L5.12507 8.87517C5.22453 8.77572 5.2804 8.64083 5.2804 8.50017C5.2804 8.35952 5.22453 8.22463 5.12507 8.12517C5.02562 8.02572 4.89072 7.96984 4.75007 7.96984C4.60942 7.96984 4.47453 8.02572 4.37507 8.12517L3.51157 8.98867C3.29048 7.98425 3.41266 6.9347 3.85856 6.00792C4.30445 5.08114 5.0483 4.3307 5.97111 3.87663C6.89392 3.42257 7.94235 3.29113 8.94868 3.50334C9.95502 3.71555 10.8611 4.25916 11.522 5.04718C12.1829 5.83521 12.5603 6.82212 12.594 7.85003C12.6277 8.87795 12.3157 9.88746 11.7079 10.7171C11.1 11.5467 10.2315 12.1485 9.2412 12.4261C8.25092 12.7038 7.19613 12.6413 6.24557 12.2487C6.1809 12.2202 6.1112 12.205 6.04055 12.2038C5.96991 12.2027 5.89975 12.2157 5.8342 12.242C5.76864 12.2684 5.70901 12.3076 5.65881 12.3573C5.60861 12.407 5.56885 12.4662 5.54187 12.5315C5.51488 12.5968 5.50122 12.6669 5.50167 12.7375C5.50213 12.8082 5.5167 12.878 5.54452 12.943C5.57235 13.0079 5.61287 13.0666 5.66371 13.1157C5.71455 13.1648 5.77468 13.2032 5.84057 13.2287C6.72843 13.5953 7.69505 13.7299 8.64929 13.6196C9.60354 13.5093 10.514 13.1579 11.2948 12.5983C12.0756 12.0388 12.7011 11.2897 13.1123 10.4215C13.5235 9.55337 13.7068 8.59482 13.645 7.63621C13.5832 6.6776 13.2783 5.75052 12.759 4.94235C12.2398 4.13419 11.5233 3.47156 10.6771 3.01694C9.83089 2.56231 8.88285 2.33066 7.92234 2.34383C6.96184 2.35699 6.021 2.61503 5.18757 3.09268Z" fill="white"/>
<path d="M8 4.91459V8.00015L10.057 10.0572" stroke="white" stroke-width="1.02852" stroke-linecap="round"/>
</g>
<defs>
<clipPath id="clip0_2093_12189">
<rect width="11" height="11" fill="white" transform="matrix(-0.727273 0.727273 0.727273 0.727273 8 0)"/>
</clipPath>
</defs>
</svg>
