<svg 
 xmlns="http://www.w3.org/2000/svg"
 xmlns:xlink="http://www.w3.org/1999/xlink"
 width="591px" height="266px">
<path fill-rule="evenodd"  fill="rgb(0, 0, 0)"
 d="M590.700,94.975 C590.198,100.075 588.647,104.529 586.050,108.325 C584.048,111.129 582.300,115.479 580.800,121.375 C579.300,127.277 577.847,134.627 576.450,143.425 C575.447,147.827 574.397,152.979 573.300,158.875 C572.198,164.777 571.050,171.325 569.850,178.525 C569.048,180.527 567.947,183.579 566.550,187.675 C565.148,191.777 564.248,195.025 563.850,197.425 C563.648,198.222 563.048,199.825 562.050,202.225 C561.047,204.625 560.048,206.974 559.050,209.275 C558.047,211.572 557.348,213.124 556.950,213.925 C549.150,230.125 540.248,242.524 530.250,251.125 C520.247,259.722 509.348,264.424 497.550,265.225 C493.148,266.022 490.148,266.125 488.550,265.525 C486.947,264.925 484.748,263.922 481.950,262.525 C479.747,260.922 478.050,259.722 476.850,258.925 C475.650,258.124 475.050,257.322 475.050,256.525 C475.050,255.925 475.247,255.274 475.650,254.575 C476.048,253.872 476.798,253.272 477.900,252.775 C478.997,252.274 480.548,252.025 482.550,252.025 C483.947,252.822 486.300,253.225 489.600,253.225 C492.900,253.225 494.948,252.822 495.750,252.025 C499.547,249.822 503.048,248.425 506.250,247.825 C512.447,244.825 517.950,241.024 522.750,236.425 C527.550,231.822 532.148,225.822 536.550,218.425 C538.350,215.622 540.248,212.374 542.250,208.675 C544.247,204.972 545.648,201.325 546.450,197.725 C548.048,193.722 549.900,188.327 551.1000,181.525 C554.100,174.729 555.947,167.979 557.550,161.275 C557.798,160.234 558.024,159.246 558.239,158.284 C556.833,159.338 555.497,160.478 554.250,161.725 C553.650,162.527 552.248,163.629 550.050,165.025 C547.847,166.427 545.700,167.679 543.600,168.775 C541.500,169.877 540.150,170.425 539.550,170.425 C538.547,170.627 538.050,171.129 538.050,171.925 C538.050,172.329 536.747,173.079 534.150,174.175 C531.548,175.277 528.848,176.229 526.050,177.025 C523.247,177.827 521.348,178.225 520.350,178.225 C518.147,178.225 515.897,177.025 513.600,174.625 C511.298,172.225 509.747,170.327 508.950,168.925 C508.148,166.929 507.150,165.025 505.950,163.225 C504.750,161.425 503.897,159.227 503.400,156.625 C502.898,154.029 503.048,150.827 503.850,147.025 C504.647,144.429 505.800,140.679 507.300,135.775 C508.800,130.877 510.497,125.529 512.400,119.725 C514.298,113.927 516.300,108.175 518.400,102.475 C520.500,96.775 522.450,91.675 524.250,87.175 C526.050,82.675 527.648,79.427 529.050,77.425 C530.250,75.827 531.600,74.829 533.100,74.425 C534.600,74.027 536.147,74.177 537.750,74.875 C539.348,75.579 540.750,76.929 541.950,78.925 C544.148,81.729 545.048,84.129 544.650,86.125 C544.247,88.127 542.447,92.027 539.250,97.825 C538.448,100.029 537.450,102.377 536.250,104.875 C535.050,107.379 534.450,109.029 534.450,109.825 C534.248,110.229 533.897,111.579 533.400,113.875 C532.898,116.177 532.350,118.329 531.750,120.325 C531.150,122.327 530.550,123.325 529.950,123.325 C529.148,124.127 528.248,126.377 527.250,130.075 C526.247,133.779 525.347,137.875 524.550,142.375 C523.748,146.875 523.247,150.775 523.050,154.075 C522.848,157.375 523.148,159.025 523.950,159.025 C530.147,159.025 536.597,156.625 543.300,151.825 C549.529,147.361 555.804,140.993 562.123,132.722 C563.192,126.549 564.512,120.662 566.100,115.075 C568.800,105.579 571.148,94.929 573.150,83.125 C574.350,80.327 575.250,78.677 575.850,78.175 C576.450,77.679 577.748,77.425 579.750,77.425 C581.948,77.425 583.598,77.575 584.700,77.875 C585.797,78.175 587.048,79.427 588.450,81.625 C590.447,85.427 591.197,89.875 590.700,94.975 ZM514.200,104.275 C512.100,104.575 509.447,104.829 506.250,105.025 C503.648,105.227 501.347,105.729 499.350,106.525 C497.348,107.327 494.948,108.325 492.150,109.525 C484.547,113.927 477.300,118.225 470.400,122.425 C463.500,126.625 456.848,132.227 450.450,139.225 C449.048,140.829 447.647,142.727 446.250,144.925 C444.848,147.129 443.348,149.529 441.750,152.125 C440.747,153.129 439.748,155.327 438.750,158.725 C437.747,162.129 436.898,165.377 436.200,168.475 C435.497,171.579 435.150,173.425 435.150,174.025 C433.950,177.827 432.647,180.625 431.250,182.425 C428.850,185.627 426.848,187.225 425.250,187.225 C423.647,187.225 421.247,185.627 418.050,182.425 C416.250,181.029 414.998,179.627 414.300,178.225 C413.597,176.829 413.550,174.129 414.150,170.125 C414.750,164.529 415.547,159.579 416.550,155.275 C417.548,150.977 418.748,146.027 420.150,140.425 C420.548,138.025 421.697,133.929 423.600,128.125 C425.498,122.327 427.847,116.027 430.650,109.225 C433.448,102.429 436.247,95.979 439.050,89.875 C441.848,83.777 444.248,79.225 446.250,76.225 C447.848,75.025 449.798,74.529 452.100,74.725 C454.397,74.927 456.347,75.827 457.950,77.425 C460.148,79.225 460.500,82.375 458.1000,86.875 C457.500,91.375 454.448,98.425 449.850,108.025 C447.450,113.425 445.650,117.475 444.450,120.175 C443.250,122.875 442.748,124.479 442.950,124.975 C443.147,125.477 444.047,125.229 445.650,124.225 C446.850,122.027 449.048,119.477 452.250,116.575 C455.447,113.679 458.850,110.829 462.450,108.025 C466.050,105.227 469.448,102.729 472.650,100.525 C475.847,98.327 478.050,96.925 479.250,96.325 C480.848,95.327 482.700,94.479 484.800,93.775 C486.900,93.077 488.348,92.529 489.150,92.125 C493.748,89.927 498.450,89.125 503.250,89.725 C508.050,90.325 511.050,92.125 512.250,95.125 C512.447,96.729 513.647,98.327 515.850,99.925 C516.647,99.925 517.148,100.525 517.350,101.725 C517.350,103.127 516.300,103.975 514.200,104.275 ZM412.350,115.225 C411.750,117.227 410.048,119.627 407.250,122.425 C404.447,125.229 401.250,127.929 397.650,130.525 C394.050,133.127 390.750,135.025 387.750,136.225 C385.148,136.825 381.797,137.327 377.700,137.725 C373.598,138.129 369.797,138.279 366.300,138.175 C362.798,138.077 360.450,137.725 359.250,137.125 C357.848,136.329 356.747,137.425 355.950,140.425 C355.148,143.425 354.548,147.729 354.150,153.325 C353.747,157.727 353.747,160.929 354.150,162.925 C354.548,164.927 354.947,166.329 355.350,167.125 C356.747,168.527 358.697,170.275 361.200,172.375 C363.698,174.475 367.247,174.827 371.850,173.425 C375.647,172.427 379.397,169.825 383.100,165.625 C386.798,161.425 390.248,158.027 393.450,155.425 C394.247,154.029 395.597,153.175 397.500,152.875 C399.398,152.575 401.447,152.725 403.650,153.325 C405.848,154.727 406.800,156.377 406.500,158.275 C406.200,160.179 405.150,163.029 403.350,166.825 C402.750,168.227 401.400,169.975 399.300,172.075 C397.200,174.175 394.898,176.275 392.400,178.375 C389.897,180.475 387.647,182.125 385.650,183.325 C379.650,186.527 374.048,188.177 368.850,188.275 C363.647,188.379 358.650,187.525 353.850,185.725 C346.050,182.529 340.997,178.075 338.700,172.375 C336.398,166.675 335.948,157.825 337.350,145.825 C337.748,139.629 337.950,135.527 337.950,133.525 C337.950,131.529 336.848,129.527 334.650,127.525 C334.241,126.982 333.606,126.286 332.778,125.461 C330.540,129.696 328.170,133.597 325.650,137.125 C324.647,138.729 323.747,140.327 322.950,141.925 C322.148,143.529 320.897,145.629 319.200,148.225 C317.498,150.827 314.648,154.629 310.650,159.625 C309.047,161.229 307.448,162.879 305.850,164.575 C304.247,166.277 302.648,167.829 301.050,169.225 C297.248,173.627 293.948,177.025 291.150,179.425 C288.347,181.825 285.548,183.129 282.750,183.325 C281.147,183.527 278.897,182.627 276.000,180.625 C273.098,178.629 270.450,176.327 268.050,173.725 C266.648,171.527 265.350,168.227 264.150,163.825 C262.950,159.429 262.050,154.525 261.450,149.125 C260.850,143.725 260.550,138.527 260.550,133.525 C260.747,128.529 261.300,122.979 262.200,116.875 C263.100,110.777 264.000,105.129 264.900,99.925 C265.800,94.727 266.447,91.225 266.850,89.425 C268.650,87.429 270.398,86.027 272.100,85.225 C273.797,84.429 275.348,84.227 276.750,84.625 C278.147,85.029 279.450,86.125 280.650,87.925 C283.448,89.327 284.798,91.525 284.700,94.525 C284.597,97.525 283.650,101.027 281.850,105.025 C281.850,106.029 281.648,107.379 281.250,109.075 C280.847,110.777 280.448,112.329 280.050,113.725 C278.447,116.529 277.547,119.027 277.350,121.225 C277.350,123.227 277.650,125.529 278.250,128.125 C278.850,130.727 278.348,133.127 276.750,135.325 L276.750,135.025 C276.548,136.427 276.497,138.827 276.600,142.225 C276.698,145.629 276.998,148.975 277.500,152.275 C277.997,155.575 278.747,157.929 279.750,159.325 C279.947,161.125 280.997,161.979 282.900,161.875 C284.798,161.777 287.250,160.427 290.250,157.825 C292.650,155.425 295.397,152.425 298.500,148.825 C301.598,145.225 304.500,141.527 307.200,137.725 C309.900,133.929 312.098,130.629 313.800,127.825 C315.497,125.027 316.148,123.227 315.750,122.425 C314.948,120.827 315.398,119.477 317.100,118.375 C318.797,117.279 320.250,116.229 321.450,115.225 C322.448,114.025 323.048,112.779 323.250,111.475 C323.447,110.177 323.948,108.827 324.750,107.425 C325.748,106.427 326.550,105.025 327.150,103.225 C326.550,101.829 327.000,100.577 328.500,99.475 C329.1000,98.379 330.947,97.225 331.350,96.025 C331.748,94.029 332.498,92.627 333.600,91.825 C334.697,91.029 335.948,90.775 337.350,91.075 C338.747,91.375 339.998,92.079 341.100,93.175 C342.197,94.277 342.848,95.829 343.050,97.825 C343.050,100.225 342.197,103.727 340.500,108.325 C339.937,109.847 339.307,111.413 338.647,112.999 C338.913,113.040 339.168,113.070 339.450,113.125 C340.448,113.327 340.950,113.829 340.950,114.625 C341.747,116.027 343.050,116.177 344.850,115.075 C346.650,113.979 348.548,111.429 350.550,107.425 C352.547,104.229 355.200,101.027 358.500,97.825 C361.800,94.629 365.100,91.675 368.400,88.975 C371.700,86.275 374.447,84.325 376.650,83.125 C377.648,82.727 379.148,82.225 381.150,81.625 C383.147,81.025 385.298,80.529 387.600,80.125 C389.897,79.727 391.847,79.629 393.450,79.825 C397.050,80.027 400.097,81.025 402.600,82.825 C405.098,84.625 407.447,86.725 409.650,89.125 C412.247,90.925 413.897,93.325 414.600,96.325 C415.298,99.325 415.448,102.527 415.050,105.925 C414.647,109.329 413.747,112.427 412.350,115.225 ZM399.300,101.725 C398.1000,99.527 398.447,98.027 397.650,97.225 C395.850,95.229 393.698,94.577 391.200,95.275 C388.697,95.979 386.348,97.127 384.150,98.725 C382.748,99.325 380.700,100.779 377.1000,103.075 C375.300,105.377 372.647,107.979 370.050,110.875 C367.448,113.777 365.348,116.425 363.750,118.825 C362.147,121.225 361.748,122.627 362.550,123.025 C362.147,123.827 363.300,124.329 365.1000,124.525 C368.700,124.727 370.547,124.825 371.550,124.825 C375.947,123.827 379.448,123.129 382.050,122.725 C384.647,122.327 387.150,121.179 389.550,119.275 C391.950,117.377 394.950,113.725 398.550,108.325 C399.347,106.127 399.600,103.929 399.300,101.725 ZM260.700,64.675 C259.997,64.577 258.848,64.029 257.250,63.025 C255.848,62.829 254.100,61.877 251.1000,60.175 C249.900,58.479 248.100,56.679 246.600,54.775 C245.100,52.877 244.350,51.729 244.350,51.325 C244.148,49.329 244.298,46.779 244.800,43.675 C245.297,40.577 246.347,37.779 247.950,35.275 C249.548,32.777 251.850,31.427 254.850,31.225 C255.647,31.225 256.350,31.329 256.950,31.525 C257.550,31.727 259.350,32.425 262.350,33.625 C263.948,36.625 265.547,39.977 267.150,43.675 C268.748,47.379 269.447,50.979 269.250,54.475 C269.048,57.977 266.948,61.127 262.950,63.925 C262.148,64.525 261.398,64.779 260.700,64.675 ZM247.200,16.825 C246.900,18.227 246.347,19.525 245.550,20.725 C244.748,21.527 243.998,22.675 243.300,24.175 C242.597,25.675 241.547,27.729 240.150,30.325 C239.348,32.927 238.650,35.575 238.050,38.275 C237.450,40.975 236.648,43.427 235.650,45.625 C234.848,48.025 233.897,50.327 232.800,52.525 C231.698,54.729 230.948,56.529 230.550,57.925 C229.148,62.529 227.498,67.029 225.600,71.425 C223.697,75.827 222.047,80.529 220.650,85.525 C219.248,90.325 217.847,95.275 216.450,100.375 C215.048,105.475 213.047,110.327 210.450,114.925 C209.048,117.129 208.050,119.927 207.450,123.325 C206.850,126.729 206.250,130.127 205.650,133.525 C204.450,137.125 203.400,140.477 202.500,143.575 C201.600,146.679 201.150,148.629 201.150,149.425 C199.950,153.827 199.097,158.177 198.600,162.475 C198.098,166.779 197.048,170.529 195.450,173.725 C195.248,175.727 194.850,177.325 194.250,178.525 C193.650,179.725 192.647,180.377 191.250,180.475 C189.848,180.579 187.950,180.025 185.550,178.825 C183.548,177.625 182.048,176.425 181.050,175.225 C180.047,174.025 179.550,172.329 179.550,170.125 C179.550,167.125 179.948,163.975 180.750,160.675 C181.547,157.375 182.348,154.127 183.150,150.925 C183.548,147.325 184.097,143.679 184.800,139.975 C185.498,136.277 186.848,132.827 188.850,129.625 C191.048,122.027 193.350,114.475 195.750,106.975 C198.150,99.475 200.250,91.727 202.050,83.725 C204.647,76.329 207.000,69.775 209.100,64.075 C211.200,58.375 213.848,51.129 217.050,42.325 C218.850,37.329 220.397,31.975 221.700,26.275 C222.998,20.575 225.047,15.429 227.850,10.825 C229.050,9.026 229.997,7.479 230.700,6.176 C231.398,4.877 232.148,3.626 232.950,2.426 C233.147,1.629 233.798,1.127 234.900,0.926 C235.997,0.729 237.248,0.827 238.650,1.226 C240.047,1.629 241.148,2.327 241.950,3.326 C242.550,3.129 243.300,3.677 244.200,4.976 C245.100,6.279 245.948,7.727 246.750,9.325 C247.547,10.929 247.847,12.325 247.650,13.525 C247.650,14.327 247.500,15.429 247.200,16.825 ZM157.950,134.725 C153.549,136.127 148.749,136.727 143.550,136.525 C138.347,136.329 134.049,135.025 130.650,132.625 C126.849,131.027 124.350,131.275 123.150,133.375 C121.950,135.475 120.849,140.529 119.850,148.525 C119.049,156.129 119.649,161.679 121.650,165.175 C123.647,168.677 126.347,170.725 129.750,171.325 C133.749,172.127 136.898,172.675 139.200,172.975 C141.497,173.275 144.347,172.427 147.750,170.425 C150.947,168.429 152.949,167.275 153.750,166.975 C154.547,166.675 155.198,166.277 155.700,165.775 C156.197,165.279 157.448,164.027 159.450,162.025 C160.847,160.629 161.948,159.579 162.750,158.875 C163.547,158.177 164.447,157.825 165.450,157.825 C166.448,157.825 167.349,158.275 168.150,159.175 C168.947,160.075 169.749,160.727 170.550,161.125 C172.547,161.125 172.997,162.325 171.900,164.725 C170.798,167.125 168.647,169.975 165.450,173.275 C162.249,176.575 158.447,179.627 154.050,182.425 C149.850,186.025 144.999,188.125 139.500,188.725 C133.997,189.325 128.649,188.477 123.450,186.175 C118.247,183.879 113.949,180.325 110.550,175.525 C107.147,171.129 104.949,166.075 103.950,160.375 C102.947,154.675 102.849,147.227 103.650,138.025 C104.250,130.225 106.749,122.379 111.150,114.475 C115.547,106.577 120.900,99.527 127.200,93.325 C133.500,87.129 139.749,82.825 145.950,80.425 C148.950,78.429 151.500,77.477 153.600,77.575 C155.700,77.679 158.948,77.927 163.350,78.325 C167.948,78.925 171.398,79.825 173.700,81.025 C175.997,82.225 177.848,83.829 179.250,85.825 C182.250,88.825 184.247,91.779 185.250,94.675 C186.248,97.577 186.750,100.427 186.750,103.225 C185.948,107.627 183.000,112.975 177.900,119.275 C172.800,125.575 166.148,130.727 157.950,134.725 ZM165.450,95.275 C162.849,93.377 158.948,93.129 153.750,94.525 C151.547,95.125 149.049,96.579 146.250,98.875 C143.447,101.177 140.799,103.727 138.300,106.525 C135.797,109.329 133.800,111.827 132.300,114.025 C130.800,116.229 130.247,117.527 130.650,117.925 C131.250,118.929 132.947,119.679 135.750,120.175 C138.549,120.677 141.699,120.827 145.200,120.625 C148.697,120.429 151.547,119.829 153.750,118.825 C155.948,117.827 158.250,116.379 160.650,114.475 C163.050,112.577 165.099,110.477 166.800,108.175 C168.497,105.879 169.350,103.929 169.350,102.325 C169.350,99.527 168.047,97.179 165.450,95.275 ZM118.500,38.875 C114.999,46.779 111.497,55.427 108.000,64.825 C104.499,74.229 101.250,83.529 98.250,92.725 C95.250,101.927 92.747,110.027 90.750,117.025 C89.550,121.427 88.500,127.029 87.600,133.825 C86.700,140.627 85.950,147.579 85.350,154.675 C84.750,161.777 84.399,168.077 84.300,173.575 C84.197,179.079 84.347,182.627 84.750,184.225 C85.950,188.229 86.499,191.229 86.400,193.225 C86.297,195.222 85.749,196.572 84.750,197.275 C83.747,197.974 82.149,198.424 79.950,198.625 C77.349,199.225 75.197,198.874 73.500,197.575 C71.799,196.272 70.547,194.425 69.750,192.025 C68.147,187.427 66.999,182.379 66.300,176.875 C65.597,171.377 65.447,166.525 65.850,162.325 L66.450,156.025 L54.750,165.325 C47.949,171.325 41.400,175.629 35.100,178.225 C28.800,180.827 23.250,182.125 18.450,182.125 C16.247,181.727 14.049,180.925 11.850,179.725 C9.647,178.525 7.697,177.025 6.000,175.225 C4.299,173.425 2.949,171.527 1.950,169.525 C0.750,166.727 0.399,162.925 0.900,158.125 C1.397,153.325 2.597,148.075 4.500,142.375 C6.399,136.675 8.799,131.079 11.700,125.575 C14.597,120.077 17.949,115.225 21.750,111.025 C28.350,101.027 35.447,94.929 43.050,92.725 C50.649,90.527 58.149,91.629 65.550,96.025 C70.749,98.229 73.997,99.227 75.300,99.025 C76.599,98.829 77.747,96.527 78.750,92.125 C79.547,88.929 80.349,85.675 81.150,82.375 C81.947,79.075 83.250,74.627 85.050,69.025 C90.047,53.829 94.397,41.927 98.100,33.325 C101.799,24.729 105.150,17.229 108.150,10.825 C110.349,6.227 112.200,3.377 113.700,2.276 C115.200,1.179 116.747,0.729 118.350,0.926 C120.549,0.926 122.550,1.727 124.350,3.326 C126.150,4.929 127.547,7.127 128.550,9.926 C129.347,11.726 129.699,13.277 129.600,14.575 C129.497,15.879 128.850,17.627 127.650,19.825 C125.049,24.625 121.997,30.977 118.500,38.875 ZM69.300,117.175 C68.199,114.879 66.450,112.727 64.050,110.725 C61.650,109.127 58.397,108.475 54.300,108.775 C50.199,109.075 45.947,111.227 41.550,115.225 C36.750,119.627 32.100,125.529 27.600,132.925 C23.100,140.327 19.749,149.425 17.550,160.225 C17.147,162.227 17.747,163.825 19.350,165.025 C20.949,166.225 24.249,166.329 29.250,165.325 C32.049,164.725 34.800,163.629 37.500,162.025 C40.200,160.427 43.050,158.529 46.050,156.325 C52.050,151.727 57.249,147.527 61.650,143.725 C66.047,139.929 68.949,134.125 70.350,126.325 C70.749,122.529 70.397,119.477 69.300,117.175 ZM218.850,150.325 C219.647,146.529 220.748,141.879 222.150,136.375 C223.547,130.877 225.000,125.327 226.500,119.725 C228.000,114.129 229.350,109.329 230.550,105.325 C231.750,101.327 232.547,98.927 232.950,98.125 C233.948,96.527 235.547,96.129 237.750,96.925 C239.948,97.727 241.748,98.927 243.150,100.525 C244.350,102.129 245.100,104.027 245.400,106.225 C245.700,108.429 245.400,111.625 244.500,115.825 C243.600,120.025 241.950,126.227 239.550,134.425 C237.347,142.427 235.697,148.877 234.600,153.775 C233.498,158.679 233.048,163.825 233.250,169.225 C232.448,176.027 231.848,180.175 231.450,181.675 C231.047,183.175 230.048,183.827 228.450,183.625 C225.450,183.227 222.900,181.075 220.800,177.175 C218.700,173.275 217.448,169.727 217.050,166.525 C217.247,164.927 217.500,162.625 217.800,159.625 C218.100,156.625 218.447,153.527 218.850,150.325 Z"/>
</svg>