<svg width="160" height="52" viewBox="0 0 160 52" fill="none" xmlns="http://www.w3.org/2000/svg">
<rect width="160" height="52" rx="8" fill="#F14635"/>
<path fill-rule="evenodd" clip-rule="evenodd" d="M38.0191 12C30.2647 12 24 18.2473 24 25.9041C24 30.5514 26.3302 34.7036 29.8445 37.2178C29.9209 37.1035 29.9973 36.8368 30.0737 36.5702V36.4559C30.4175 34.9703 30.4939 33.5608 30.3411 31.8847C30.2265 30.8562 30.0737 30.2848 29.9209 29.7515C29.7681 29.1801 29.6535 28.6849 29.6535 27.923C29.6535 27.2373 29.8063 26.7421 29.9591 26.2469L29.9591 26.2469C30.1501 25.6755 30.3411 24.9898 30.3793 23.847C30.4557 21.6376 30.6849 21.0662 31.3342 20.4186C31.9836 19.771 32.2128 19.5044 32.2128 19.0473C32.2128 18.9478 32.1839 18.8178 32.1497 18.6637C32.0265 18.1096 31.8343 17.2451 32.6712 16.3807C33.4352 15.6951 34.1228 15.4284 34.6194 15.4284C34.8868 15.4284 35.116 15.5046 35.2306 15.657C35.5744 16.0379 35.498 16.7236 34.7722 17.6759C34.0846 18.6282 34.0846 19.0473 34.1228 19.2758C34.161 19.5044 34.3902 19.8091 34.8104 20.1139C34.867 20.1633 34.9264 20.2128 34.9868 20.2632C35.2524 20.4847 35.5405 20.7249 35.7271 21.0662C36.0899 21.6992 36.3091 22.3083 36.574 23.0446C36.6439 23.2388 36.717 23.4419 36.7967 23.6566L36.9113 23.9613C37.2169 24.8755 38.0955 25.1803 39.5853 25.1803C41.075 25.1803 42.6794 24.1899 42.6794 23.428C42.6794 23.0316 42.5967 22.8208 42.5173 22.6186C42.4441 22.4322 42.3738 22.253 42.3738 21.9424C42.3738 21.2948 43.3288 19.4282 44.7804 19.4282C45.5061 19.4282 45.9263 19.9615 45.5443 20.7234C45.4307 20.9627 45.2752 21.2395 45.1181 21.5194L45.118 21.5194C44.7999 22.0859 44.4748 22.6649 44.4748 22.9709C44.4748 23.8089 45.7353 23.1613 46.5375 22.5138C47.3397 21.8662 47.5307 21.6757 48.1037 20.6853C48.4475 20.0758 48.9441 19.9615 49.2497 20.1139C49.5935 20.3043 49.8226 20.8376 49.5171 21.5614C49.2497 22.1328 48.5621 22.8947 47.8363 23.6946C47.775 23.7631 47.7131 23.832 47.6509 23.9012C46.7437 24.9111 45.7735 25.991 45.7735 26.704C45.7735 30.5895 47.9891 34.0179 48.2183 34.3608C48.4475 34.7417 48.6003 34.856 48.6767 34.8941C50.7394 32.4942 52 29.3705 52 25.9421V25.8279C52 18.2092 45.7353 12 38.0191 12ZM42.3347 38.7811C42.2201 39.0477 41.8763 39.3144 41.4179 39.543C40.3101 39.8096 39.1641 39.962 37.98 40.0001H37.598C37.1014 39.8477 36.7576 39.6191 36.5666 39.3144C35.9936 38.324 35.9554 36.1527 35.9554 33.6004V32.8766L35.9553 32.5929C35.9539 30.1618 35.9528 28.0852 36.8722 27.315C37.216 27.0103 37.7508 26.896 38.4384 27.0103C41.1123 27.3912 41.3415 29.0292 41.5325 30.4768L41.5707 30.6291L41.7235 31.4291C41.7427 31.5602 41.7639 31.7028 41.7864 31.8552L41.7864 31.8552L41.7864 31.8553C42.0326 33.5175 42.4493 36.3315 42.4493 37.8669C42.4493 38.2859 42.4111 38.5906 42.3347 38.7811ZM32.9391 32.304C33.4739 32.304 33.8177 34.9705 33.8941 37.0275C33.9705 38.4751 33.8177 39.0465 33.5503 39.275C33.4166 39.2179 33.283 39.1703 33.1493 39.1227L33.1493 39.1227L33.1492 39.1227C33.0155 39.075 32.8818 39.0274 32.7481 38.9703C32.5953 38.6274 32.4425 38.1322 32.3661 37.4846C32.137 35.4276 32.3661 32.342 32.9391 32.304ZM44.3995 32.6092C45.3163 32.1902 46.9588 35.8852 46.806 36.5328C46.7933 36.5836 46.7763 36.6344 46.7593 36.6852C46.7254 36.7868 46.6914 36.8883 46.6914 36.9899C46.1948 37.3709 45.6601 37.7137 45.1253 38.0185C44.9343 38.0565 44.7815 38.0185 44.7051 37.9042C43.9793 36.7233 43.7119 32.952 44.3995 32.6092Z" fill="white"/>
<path fill-rule="evenodd" clip-rule="evenodd" d="M136 30.893H131.457L135.884 25.0647V23.3886H128.8L126.952 25.7504H131.957L127.53 31.5406V33.2548H136V30.893ZM105.393 33.2548H108.511V23.4267H105.393V33.2548ZM98.8478 25.598C99.8873 25.598 100.388 26.4742 100.388 28.2265H100.426V28.6074C100.388 30.2835 99.8873 31.1216 98.8863 31.1216C98.1548 31.1216 97.6543 30.8168 97.3848 30.2835V26.398C97.6158 25.8647 98.1163 25.598 98.8478 25.598ZM102.428 32.0739C103.121 31.1596 103.468 29.9407 103.468 28.4169H103.429V28.2646C103.429 26.7027 103.083 25.4837 102.39 24.5695C101.735 23.6934 100.773 23.2362 99.5408 23.2362C98.5783 23.2362 97.7698 23.6172 97.1923 24.3409L97.1153 23.4267H94.2279V37.445H97.3463V32.4548C97.9623 33.1024 98.6938 33.4452 99.6178 33.4452C100.773 33.4452 101.735 32.9881 102.428 32.0739ZM88.9535 29.8645C89.2229 30.0549 89.3769 30.2454 89.3769 30.5121C89.3769 30.7787 89.2999 31.0073 89.0689 31.0835C88.8379 31.2739 88.53 31.3501 88.1065 31.3501C87.6445 31.3501 87.298 31.2358 86.99 31.0454C86.682 30.8549 86.528 30.5121 86.528 30.0549H83.6405C83.6405 30.6263 83.833 31.1596 84.218 31.6929C84.603 32.2263 85.142 32.6453 85.7965 32.95C86.451 33.2548 87.221 33.4071 88.068 33.4071C89.3769 33.4071 90.4164 33.1405 91.2249 32.5691C92.0334 31.9977 92.4184 31.2739 92.4184 30.3597C92.4184 29.0264 91.6869 28.1122 90.1854 27.617C89.7234 27.4646 89.1844 27.3503 88.607 27.236C87.991 27.1218 87.5675 26.9694 87.298 26.817C87.0285 26.6646 86.8745 26.4361 86.8745 26.1694C86.8745 25.9028 86.99 25.6742 87.221 25.4837C87.4135 25.2933 87.7215 25.2171 88.0295 25.2171C88.8764 25.2171 89.2999 25.598 89.2999 26.398H92.3414C92.3414 25.4457 91.9564 24.6457 91.1479 24.0743C90.3779 23.5029 89.2999 23.1981 87.991 23.1981C86.759 23.1981 85.7965 23.5029 85.0265 24.0743C84.295 24.6838 83.91 25.4076 83.91 26.3218C83.91 26.8551 84.0255 27.3122 84.295 27.6932C84.5645 28.0741 84.9495 28.4169 85.45 28.6836C85.9505 28.9883 86.605 29.2169 87.375 29.3693C88.145 29.5597 88.684 29.7121 88.9535 29.8645ZM78.4046 31.0454C78.1351 31.1977 77.8271 31.2739 77.4421 31.2739C77.1341 31.2739 76.9031 31.1596 76.7106 31.0454C76.5181 30.8549 76.4411 30.6263 76.4411 30.3597C76.4411 29.4074 76.9801 28.9121 78.0581 28.9121H78.9436V30.474C78.8281 30.7025 78.6741 30.893 78.4046 31.0454ZM79.157 32.5778L79.157 32.5778L79.157 32.5779C79.2422 32.8662 79.311 33.0988 79.4056 33.2548V33.2929H82.4855V33.1405C82.216 32.6453 82.062 31.9596 82.062 31.0454V26.5885C82.062 25.5218 81.6771 24.6838 80.9456 24.0743C80.2141 23.4648 79.2516 23.1601 77.9426 23.1601C76.6336 23.1601 75.5941 23.4267 74.7857 24.0362C73.9772 24.6457 73.5537 25.4076 73.5537 26.3599H76.6721C76.6721 25.6361 77.0571 25.2933 77.7886 25.2933C78.5971 25.2933 78.9821 25.7504 78.9821 26.6646V27.1979H78.0196C76.4796 27.1979 75.3246 27.5027 74.5162 28.036C73.7077 28.6074 73.3227 29.4074 73.3227 30.474C73.3227 31.3501 73.6692 32.0358 74.3237 32.6072C74.9782 33.1786 75.7866 33.4452 76.7106 33.4452C77.7116 33.4452 78.5201 33.1024 79.0976 32.3786C79.1185 32.4476 79.1381 32.5141 79.157 32.5778ZM64.6988 30.1692L65.8153 28.6455L68.8952 33.2548H72.7452L67.8558 25.979L73.0917 19.2365H69.0877L64.6988 24.9885V19.2365H61.4648V33.2548H64.6988V30.1692ZM114.133 31.8098C114.133 32.6859 113.401 33.4097 112.516 33.4097C111.592 33.4097 110.86 32.6859 110.86 31.8098C110.86 30.8955 111.63 30.2098 112.516 30.2098C113.401 30.2098 114.133 30.9336 114.133 31.8098ZM106.896 22.4756C107.782 22.4756 108.513 21.7518 108.513 20.8757C108.513 19.9995 107.782 19.2758 106.896 19.2758C106.011 19.2758 105.279 19.9995 105.279 20.8757C105.279 21.7518 106.011 22.4756 106.896 22.4756ZM119.984 31.2358L120.985 29.9788L123.18 33.2167L126.568 33.2548L122.833 27.6551L126.106 23.3886H122.679L119.984 26.8932V19.2365H116.866V33.2548H119.984V31.2358Z" fill="white"/>
</svg>
